
        <svg xmlns="http://www.w3.org/2000/svg" xmlns:xlink="http://www.w3.org/1999/xlink" version="1.1" width="3240.8146648328707" 
        height="1319.6643632841303" viewBox="0 -12.040733241643526 3240.8146648328707 1319.6643632841303">
			
			<g transform="scale(12.040733241643526) translate(10, 10)">
				<defs id="SvgjsDefs2865"></defs><g id="SvgjsG2866" featureKey="symbolFeature-0" transform="matrix(0.5181232712378634,0,0,0.5181232712378634,109.48187672876213,39.393856573531735)" fill="#60b553"><title xmlns="http://www.w3.org/2000/svg">Artboard 8</title><path xmlns="http://www.w3.org/2000/svg" d="M54.75,24.15l.06-.11,2.58-4.93C54.87,19,52.4,19,50,19h0A98.83,98.83,0,0,0,32.85,20.1c-3.44.6-8.41,2-11.82,6.87-1.92,2.76-5,9.64-7.42,15.7a8.62,8.62,0,0,0-5.71-2.55L6,40.14a5.06,5.06,0,0,0-5,5c0,1.07,0,2.22,0,3.63a5.27,5.27,0,0,0,5.16,5.14l2.2,0h.29q-.39.51-.74,1A21.44,21.44,0,0,0,4.41,67.34V91.78A5.11,5.11,0,0,0,9.5,96.89h6.61a5.11,5.11,0,0,0,5.11-5.11V87.95H78.78v3.84a5.11,5.11,0,0,0,5.11,5.11H90.5a5.11,5.11,0,0,0,5.11-5.11V67.34A21.44,21.44,0,0,0,92.06,55q-.36-.53-.74-1h.29l2.2,0A5.27,5.27,0,0,0,99,48.77c0-1.41,0-2.56,0-3.63a5.06,5.06,0,0,0-5-5l-1.89,0a8.43,8.43,0,0,0-5.43,2.31L82.6,50.19a10.3,10.3,0,0,1-19.36-6.31L63.89,40a10.95,10.95,0,0,1-9.19-15.7ZM30.82,72.41H21.46a4,4,0,0,1-4-4V66a4,4,0,0,1,5-3.85l9.36,2.45a4,4,0,0,1-1,7.82Zm37.34-7.82,9.36-2.45a4,4,0,0,1,5,3.85v2.45a4,4,0,0,1-4,4H69.18a4,4,0,0,1-1-7.82ZM78.9,6.86,77,18.61l7.81.36.44,0A3.88,3.88,0,0,1,88,24.56L76.3,47a3.21,3.21,0,0,1-2.9,1.8,3.35,3.35,0,0,1-.52,0A3.24,3.24,0,0,1,70.22,45l1.94-11.76-7.81-.36-.44,0a3.88,3.88,0,0,1-2.84-5.54L72.8,4.91a3.21,3.21,0,0,1,2.9-1.8,3.36,3.36,0,0,1,.52,0A3.24,3.24,0,0,1,78.9,6.86Z"></path></g><g id="SvgjsG2867" featureKey="nameLeftFeature-0" transform="matrix(2.5677599091982484,0,0,2.5677599091982484,0,-9.355204305981658)" fill="#5eb251"><path d="M0 6.039999999999999 l0.72 0 l0 13.24 l7.66 0 l0 -2 l-5.64 0 l0 -1.92 l0.72 0 l0 1.2 l5.64 0 l0 3.44 l-9.1 0 l0 -13.96 z M1.36 6.039999999999999 l7.64 0 l0 3.42 l-4.8 0 l0 -0.72 l4.08 0 l0 -1.98 l-6.2 0 l0 5.78 l4.66 0 l0 0.72 l-5.38 0 l0 -7.22 z M1.36 13.9 l6.08 0 l0 -2 l-4.7 0 l0 -4.54 l4.84 0 l0 0.72 l-4.12 0 l0 3.1 l4.7 0 l0 3.44 l-6.08 0 l0 3.32 l5.6 0 l0 0.72 l-6.32 0 l0 -4.76 z M10.92 5.98 l2.06 0 l0 12.7 l-0.74 0 l0 -11.98 l-0.6 0 l0 12.58 l6.58 0 l0 -1.92 l-3.26 0 l0 -0.72 l3.98 0 l0 3.36 l-8.02 0 l0 -14.02 z M13.64 5.98 l0.72 0 l0 11.96 l3.22 0 l0 0.74 l-3.94 0 l0 -12.7 z M20.46 6.039999999999999 l0.72 0 l0 13.24 l7.66 0 l0 -2 l-5.64 0 l0 -1.92 l0.72 0 l0 1.2 l5.64 0 l0 3.44 l-9.1 0 l0 -13.96 z M21.82 6.039999999999999 l7.64 0 l0 3.42 l-4.8 0 l0 -0.72 l4.08 0 l0 -1.98 l-6.2 0 l0 5.78 l4.66 0 l0 0.72 l-5.38 0 l0 -7.22 z M21.82 13.9 l6.08 0 l0 -2 l-4.7 0 l0 -4.54 l4.84 0 l0 0.72 l-4.12 0 l0 3.1 l4.7 0 l0 3.44 l-6.08 0 l0 3.32 l5.6 0 l0 0.72 l-6.32 0 l0 -4.76 z M40.379999999999995 15.440000000000001 c-1.26 0.82 -1.88 1.06 -2.74 1.06 c-0.6 0 -1.16 -0.16 -1.7 -0.48 c-1.06 -0.64 -1.78 -1.8 -1.78 -3 c0 -0.64 0.16 -1.24 0.48 -1.78 c0.62 -1.08 1.8 -1.72 3 -1.72 c0.76 0 1.44 0.22 2.02 0.64 c0.1 0.06 0.22 0.14 0.36 0.28 l0.3 0.22 l1.34 -1.58 l-0.22 -0.22 c-0.14 -0.14 -0.32 -0.26 -0.54 -0.4 c-0.94 -0.72 -2.04 -1.08 -3.26 -1.08 c-1.5 0 -2.88 0.58 -3.98 1.64 c-1.06 1.12 -1.66 2.5 -1.66 4 s0.6 2.92 1.66 3.98 s2.48 1.66 3.98 1.66 c1.08 0 2.08 -0.3 3.02 -0.9 l-0.4 -0.6 c-0.82 0.54 -1.68 0.8 -2.62 0.8 c-1.3 0 -2.54 -0.52 -3.48 -1.46 s-1.44 -2.18 -1.44 -3.48 s0.5 -2.52 1.44 -3.46 c0.94 -0.96 2.18 -1.46 3.48 -1.46 c0.98 0 1.92 0.3 2.86 0.92 l0.16 0.14 l-0.44 0.5 c-0.06 -0.02 -0.1 -0.04 -0.14 -0.08 c-0.74 -0.5 -1.56 -0.76 -2.44 -0.76 c-0.78 0 -1.48 0.18 -2.1 0.54 c-1.26 0.74 -2.1 2.2 -2.1 3.66 c0 0.7 0.2 1.4 0.58 2.06 c0.78 1.34 2.2 2.16 3.62 2.16 c0.94 0 1.7 -0.28 2.84 -1 l1.12 1.66 c-1.46 0.96 -2.6 1.36 -3.96 1.36 c-1.12 0 -2.16 -0.28 -3.12 -0.84 c-1.94 -1.12 -3.14 -3.16 -3.14 -5.4 c0 -1.12 0.28 -2.16 0.84 -3.14 c1.12 -1.92 3.18 -3.12 5.42 -3.12 c1.58 0 3.08 0.58 4.22 1.64 l0.12 0.1 l0.16 0.16 l0.5 -0.52 l-0.28 -0.28 c-1.28 -1.14 -2.96 -1.8 -4.72 -1.8 c-1.26 0 -2.42 0.3 -3.48 0.92 c-2.12 1.22 -3.5 3.56 -3.5 6.04 c0 1.22 0.32 2.38 0.96 3.46 c1.26 2.16 3.52 3.52 6.02 3.52 c1.58 0 2.9 -0.5 4.68 -1.72 l0.28 -0.18 l-1.9 -2.86 z"></path></g><g id="SvgjsG2868" featureKey="inlineSymbolFeature-0" transform="matrix(0.07358491978385873,0,0,0.07358491978385873,101.88083565781996,-14.370383068614084)" fill="#5eb251"><g xmlns="http://www.w3.org/2000/svg"><path d="M490.8,579.5c-0.5-0.4-1-0.8-1.5-1.3c0.9,1.3,1.8,2.5,2.7,3.7l0.1-1l0-0.4v0   C491.7,580.2,491.2,579.8,490.8,579.5z"></path><polygon points="511.4,583.3 511.4,583.3 511.4,583.3  "></polygon><path d="M740.3,501.8l0,1.2l0,1.1c0,0.7,0,1.4-0.1,2.1c-0.1,1.4-0.1,2.9-0.3,4.3c-0.2,2.9-0.5,5.7-0.9,8.5   c-1.6,11.3-4.5,22.4-8.8,33c-4.3,10.5-9.9,20.5-16.7,29.6c-6.8,9.1-14.7,17.3-23.4,24.5c-5.9,4.8-12.2,9.1-18.8,12.8   c-0.2,0.1-0.5,0.3-0.7,0.4c-0.9,0.5-1.8,1-2.7,1.5c-0.3,0.1-0.5,0.3-0.8,0.4c-1,0.5-2.1,1.1-3.1,1.6c-0.8,0.4-1.7,0.8-2.5,1.2   c-3,1.4-6.1,2.7-9.2,3.9c-7.2,2.7-14.7,4.8-22.3,6.2c-0.2,0-0.4,0.1-0.6,0.1c-4.1,0.7-8.2,1.3-12.4,1.7c-1.4,0.1-2.9,0.2-4.3,0.3   c-1.4,0.1-2.8,0.1-4.2,0.2l-2.1,0l-1.7,0h-0.3c-2.8,0-5.6-0.1-8.3-0.3c-1.1-0.1-2.2-0.2-3.3-0.3c-4.4-0.4-8.8-1-13.2-1.7   c-5.5-1-10.9-2.2-16.2-3.7c-10.6-3.1-20.9-7.3-30.6-12.8c-7.7-4.3-15-9.4-21.7-15.1c-1.7-1.4-3.3-2.9-5-4.5   c-5.1-4.9-9.9-10.2-14.1-15.9l0.1-1l0-0.4v0c-0.4-0.3-0.9-0.7-1.3-1.1c-0.5-0.4-1-0.8-1.5-1.3c0,0,0,0,0,0c-1.5-1.3-3-2.6-4.4-4.1   c-2.3-2.3-4.6-4.7-6.7-7.2c0,0.5,0.1,1,0.1,1.5c0.7,10.3,1.3,21.2,2.1,32.4c0.6,11.3,1.3,22.9,1.9,34.7c0.6,11.8,1.1,23.8,1.7,35.8   c0.6,12,1.5,24,2.4,35.8c0.4,5.9,0.9,11.8,1.2,17.6c0.3,5.8,0.5,11.5,0.6,17.1c0,5.6,0,11.2-0.3,16.6c-0.1,2.7-0.3,5.4-0.4,8   c-0.1,1.3-0.2,2.6-0.3,3.9l0,0.5l0,0.2c0-0.1,0-0.4,0-0.7l0,0.1l0,1c0,0.7,0,1.3,0,1.9l0,0.5c0,0.2,0,0.1,0,0.2c0,0.1,0,0.2,0,0.3   c0,0.2,0,0.4-0.1,0.6c0,0.1,0,0.3,0,0.4l0,0.5l0.1,1c0.2,0.7,0.3,1.4,0.4,2c0.2,0.7,0.3,1.4,0.6,2c0.9,2.7,2.3,5.2,4,7.3   c1.8,2.2,3.8,4,6.2,5.5c0.6,0.3,1.2,0.6,1.8,1c0.6,0.3,1.2,0.5,1.8,0.8c0.6,0.3,1.3,0.5,1.9,0.7c0.3,0.1,0.6,0.2,1,0.3l0.2,0.1   c0,0,0.3,0-0.2,0l0.1,0l0.2,0l0.7,0.1c2.2,0.5,4.4,0.8,6.6,0.8c3,0,5.9-0.4,8.5-1.1c4.6-1.2,8.3-2.8,10.9-3.9   c1.3-0.6,2.3-1.1,2.9-1.4c0.7-0.3,1-0.5,1-0.5l2.5,2.5c0,0-0.2,0.4-0.6,1c-0.4,0.7-0.9,1.7-1.8,3c-1.7,2.6-4.3,6.3-8.9,10.3   c-2.3,2-5.1,4-8.6,5.8c-3.5,1.7-7.6,3.3-12.3,4c-2.1,0.3-4.4,0.5-6.8,0.5c-2.8,0-5.7-0.3-8.7-0.8c-5.5-1.2-11.1-3.4-16.3-6.9   c-5.3-3.5-10-8.3-13.8-14.1c-0.9-1.5-1.8-3-2.6-4.6c-0.8-1.6-1.5-3.3-2.2-5c-0.3-0.9-0.6-1.7-0.8-2.6l-0.4-1.3   c-0.1-0.5-0.3-0.8-0.4-1.4c-0.2-1.1-0.4-2.1-0.6-3.2l-0.3-1.6l-0.1-0.8l-0.1-0.5c-0.1-0.6-0.2-1.3-0.2-1.9l-0.1-1l0-0.1   c0-0.8,0-1,0-1l0-0.2l0-0.5c-0.1-1.3-0.2-2.6-0.3-3.9c-0.1-2.7-0.3-5.3-0.4-8c-0.2-5.4-0.3-10.9-0.3-16.6   c0.1-5.6,0.3-11.3,0.6-17.1c0.3-5.8,0.8-11.7,1.2-17.6c1-11.8,1.9-23.8,2.4-35.8c0.6-12,1.1-24,1.7-35.8   c0.6-11.8,1.3-23.5,1.9-34.7c0.7-11.3,1.3-22.1,2.1-32.4c0.6-9.1,1.2-17.8,1.7-25.9c0.1-1.1,0.1-2.1,0.2-3.1   c0.6-9,1.3-17.3,1.8-24.6c0.5-7.3,1-13.7,1.4-18.9c0.8-10.5,1.4-16.5,1.4-16.5h3.5c0,0,0.5,6,1.4,16.5c0.4,5.3,0.9,11.6,1.5,18.9   c0.5,6.8,1.1,14.3,1.6,22.6c0.3,1.1,0.6,2.2,0.9,3.3c3.1,10,7.5,19.6,13.3,28.4c5.6,8.5,12.3,16.3,19.9,23c0.2,0.2,0.4,0.3,0.6,0.5   c7.8,6.9,16.5,12.8,25.7,17.5c9.2,4.8,19,8.4,29.1,11c5,1.3,10.1,2.3,15.3,3c5.1,0.7,10.3,1.1,15.5,1.3c1.4,0,2.8,0.1,4.2,0.1   c1.2,0,2.4,0,3.6,0l1.2,0l0.8,0l1.9-0.1c1.2-0.1,2.5-0.2,3.8-0.3c0.7-0.1,1.3-0.1,2-0.2c1.3-0.1,2.6-0.3,3.8-0.5   c3.2-0.4,6.3-1,9.4-1.7c0.7-0.2,1.4-0.3,2.1-0.5c8.3-1.9,16.3-4.7,23.9-8.3c1-0.4,1.9-0.9,2.8-1.4c2.1-1.1,4.3-2.2,6.3-3.4   c0.2-0.1,0.5-0.3,0.7-0.4c0.8-0.4,1.5-0.9,2.3-1.4c5.7-3.5,11-7.4,16-11.8c7.7-6.6,14.5-14.3,20.3-22.5c5.8-8.3,10.5-17.3,14-26.7   c3.5-9.4,5.8-19.3,6.9-29.3c0.3-2.5,0.5-5,0.5-7.5c0.1-1.3,0.1-2.5,0.1-3.8c0-0.6,0-1.3,0-1.9l0-1.8c0-1.3-0.1-2.7-0.1-4   c-0.1-1.2-0.1-2.4-0.2-3.7c-0.2-2.5-0.5-5-0.8-7.5c-1.4-9.9-4-19.6-7.9-28.8c-3.8-9.2-8.8-17.9-14.7-25.8   c-5.9-7.9-12.9-15.1-20.6-21.3l-4.6-3.7l1.2-6.3l0.5-2.5l0.2-1l0.2-1.4l0.4-2.8c0.1-0.9,0.1-1.6,0.2-2.4c0.1-0.5,0.1-1.1,0.1-1.7   c0-1,0.1-2.1,0.1-3.2c0-1.7,0-3.3-0.1-5c-0.2-1.7-0.2-3.3-0.4-5l-0.3-2.5l-0.4-2.5c-0.1-0.7-0.2-1.4-0.4-2.1   c-0.2-0.9-0.4-1.9-0.6-2.8c-0.2-0.8-0.4-1.6-0.6-2.4c-0.2-0.8-0.4-1.6-0.7-2.4c-0.5-1.6-1-3.2-1.6-4.7c-0.6-1.6-1.3-3.1-1.9-4.6   c-1.4-3-2.9-6-4.7-8.8c-1.7-2.9-3.7-5.5-5.7-8.1c-1.1-1.3-2.1-2.6-3.3-3.8c-0.6-0.6-1.1-1.2-1.7-1.8l-1.8-1.7   c-0.6-0.6-1.2-1.2-1.8-1.7l-1.8-1.7l-1.9-1.5l-1-0.8l-1-0.7l-2-1.5l-2.1-1.4c-1.4-1-2.8-1.7-4.2-2.6c-2.9-1.6-5.8-3.1-8.9-4.3   c-3-1.3-6.2-2.3-9.3-3.2c-1.6-0.4-3.2-0.8-4.8-1.1l-2.4-0.4l-0.3-0.1l-0.2,0c0,0,0,0,0,0h-0.1l0,0l-0.6-0.1l-1.4-0.2l-2.3-0.3   c-0.8-0.1-1.6-0.2-2.5-0.2c-1.6-0.1-3.3-0.2-4.9-0.2h-0.8c-6.3,0-12.5,0.8-18.6,2.3l-12,3l-3-12.3c-2.9-11.7-7.6-22.9-13.9-33.2   c-6.3-10.2-14.2-19.5-23.3-27.2c-9.1-7.8-19.4-14.1-30.5-18.7c-11-4.6-22.7-7.4-34.5-8.3c-2.8-0.2-5.6-0.3-8.4-0.3h-0.5l-1.1,0   h-0.6l-0.1,0h0l-0.2,0l-2.5,0.1l-1.3,0c-0.4,0-0.8,0-1.2,0.1l-2.1,0.2c-1.3,0.1-2.8,0.3-4.3,0.4c-1.5,0.1-2.9,0.4-4.4,0.6   c-2.9,0.5-5.8,1.1-8.7,1.7c-11.5,2.7-22.5,7.3-32.5,13.5c-10,6.2-19.1,13.8-26.7,22.7c-7.6,8.9-13.8,18.9-18.3,29.6l-5.1,12.1   l-13.6-2.3c-6.2-1-12.5-1.5-18.7-1.5h-1.2l-1,0l-2.7,0.1l-2.2,0.1c-0.7,0-1.5,0.1-2.3,0.2c-3.1,0.3-6.2,0.6-9.3,1.1   c-6.1,1-12.2,2.6-18.1,4.6c-5.9,2-11.6,4.5-17,7.5c-5.5,3-10.7,6.3-15.6,10.2c-4.9,3.8-9.5,8-13.7,12.6c-4.2,4.6-8.1,9.5-11.5,14.7   c-3.4,5.2-6.4,10.7-8.9,16.3c-2.5,5.7-4.6,11.6-6.1,17.6c-1.6,6-2.6,12.2-3.1,18.4c-0.3,3.1-0.4,6.2-0.4,9.4v2l0,0.5l0.1,2.2   c0.1,1.5,0.1,3.1,0.3,4.7c0.2,3.1,0.7,6.2,1.1,9.3c0.5,3.1,1.2,6.2,1.9,9.2c1.6,6.1,3.6,12.1,6.2,17.8c1.3,2.9,2.6,5.7,4.2,8.5   c1.5,2.8,3.2,5.5,4.9,8.1c3.5,5.3,7.5,10.3,11.8,15c2.1,2.4,4.4,4.6,6.8,6.7c2.4,2.2,4.8,4.2,7.3,6.2l8.5,6.7l-2.9,9.4   c-0.4,1.3-0.7,2.5-1.1,3.8l-0.5,1.9l-0.2,1l0,0.2l-0.1,0.5l-0.4,2.3l-0.2,1.2c-0.1,0.4-0.1,0.6-0.1,0.9l-0.2,1.8l-0.1,0.9   c0,0.3-0.1,0.7-0.1,1c-0.5,5.2-0.5,10.5,0.1,15.8c0.6,5.3,1.8,10.5,3.4,15.5c1.7,5.1,3.8,10,6.6,14.6c5.4,9.3,12.8,17.6,21.6,24   c4.4,3.2,9.2,6,14.2,8.3c1.3,0.6,2.6,1.1,3.8,1.6l3.9,1.4l4,1.2l3.9,1l2.3,0.5l1.9,0.3c1.4,0.2,2.7,0.4,4.1,0.5   c2.3,0.2,4.7,0.3,7,0.3c0.4,0,0.9,0,1.3,0c5.6-0.1,11.2-0.8,16.8-2.1c11.1-2.6,21.9-7.5,31.8-14.1c9.8-6.6,18.6-14.9,25.8-24.5   c3.6-4.8,6.8-10,9.5-15.4c0.8-1.7,1.6-3.5,2.4-5.3v0c0.2-2.5,0.3-4.9,0.5-7.2c0.6-9,1.3-17.3,1.8-24.6c0.5-7.3,1-13.7,1.4-18.9   c0.8-10.5,1.4-16.5,1.4-16.5h3.5c0,0,0.5,6,1.4,16.5c0.4,5.3,0.9,11.6,1.5,18.9c0.5,7.3,1.2,15.6,1.8,24.6c0.6,9,1.3,18.8,2,29.1   c0.7,10.3,1.3,21.2,2.1,32.4c0.6,11.3,1.4,22.9,1.9,34.7c0.6,11.8,1.2,23.8,1.7,35.8c0.6,12,1.5,24,2.4,35.8   c0.4,5.9,0.9,11.8,1.2,17.6c0.3,5.8,0.5,11.5,0.6,17.1c0,5.6,0,11.2-0.3,16.6c-0.1,2.7-0.3,5.4-0.4,8c-0.1,1.3-0.2,2.6-0.3,3.9   l0,0.5l0,0.2c0,0,0,0,0,0c0,0.1,0,0.3,0,1l0,0.1l-0.1,1c-0.1,0.6-0.2,1.3-0.2,1.9l-0.1,0.5l-0.1,0.8l-0.3,1.6   c-0.2,1.1-0.4,2.1-0.6,3.2c-0.1,0.6-0.3,0.9-0.4,1.4l-0.4,1.3c-0.3,0.9-0.6,1.7-0.8,2.6c-0.7,1.7-1.4,3.4-2.2,5   c-0.9,1.6-1.7,3.1-2.6,4.6c-3.8,5.9-8.6,10.6-13.8,14.1c-5.2,3.5-10.9,5.8-16.3,6.9c-3,0.6-5.9,0.8-8.6,0.8c-2.4,0-4.7-0.2-6.8-0.5   c-4.7-0.7-8.9-2.3-12.3-4c-3.5-1.8-6.3-3.8-8.6-5.8c-4.6-4-7.2-7.7-8.9-10.3c-0.8-1.3-1.4-2.3-1.8-3c-0.4-0.7-0.6-1-0.6-1l2.5-2.5   c0,0,0.3,0.2,1,0.5c0.7,0.3,1.6,0.8,2.9,1.4c2.6,1.2,6.3,2.8,10.9,3.9c2.6,0.7,5.6,1.1,8.6,1.1c2.2,0,4.4-0.2,6.6-0.8l0.7-0.1   l0.2,0l0.1,0c-0.4,0-0.2,0-0.2,0l0.2-0.1c0.3-0.1,0.6-0.2,1-0.3c0.6-0.2,1.3-0.3,1.9-0.7c0.6-0.3,1.3-0.5,1.8-0.8   c0.6-0.3,1.2-0.7,1.8-1c2.3-1.4,4.4-3.3,6.2-5.5c1.7-2.2,3.1-4.7,4-7.3c0.2-0.7,0.4-1.4,0.6-2c0.1-0.7,0.2-1.4,0.4-2l0.1-1l0.1-0.5   c0-0.2,0.1-0.4,0-0.4c0-0.2-0.1-0.4-0.1-0.6c0-0.1,0-0.2,0-0.3c0-0.1,0,0,0-0.2l0-0.5c0-0.7,0-1.3,0-1.9l0-1c0,0.3,0,0.4,0,0.5   l0-0.2l0-0.5c-0.1-1.3-0.2-2.6-0.3-3.9c-0.1-2.7-0.3-5.3-0.4-8c-0.2-5.4-0.3-10.9-0.3-16.6c0.1-5.6,0.3-11.3,0.6-17.1   c0.3-5.8,0.8-11.7,1.2-17.6c0.9-11.8,1.9-23.8,2.4-35.8c0.6-12,1.1-24,1.7-35.8c0.6-11.8,1.3-23.5,1.9-34.7   c0.7-11.3,1.3-22.1,2.1-32.4c0.1-1.1,0.2-2.2,0.2-3.3c-1.1,2.3-2.3,4.6-3.6,6.8c-3.2,5.7-7,11-11.3,16c-4.2,5-8.9,9.7-14,13.9   c-10.1,8.5-21.9,15.3-34.8,19.6c-6.4,2.2-13.2,3.7-20.1,4.4c-3.1,0.3-6.3,0.5-9.5,0.5c-0.3,0-0.6,0-1,0c-1.8,0-3.5-0.1-5.3-0.2   l-2.8-0.3l-2.4-0.3l-5.3-0.8l-5.1-1.1l-5-1.4c-1.7-0.5-3.3-1.1-5-1.6c-6.6-2.3-12.9-5.4-18.9-9.1c-6-3.7-11.6-8.1-16.7-13   c-5.1-4.9-9.7-10.4-13.7-16.3c-4-5.9-7.4-12.2-10.1-18.9c-2.7-6.7-4.7-13.6-6-20.7c-1.3-7.1-1.8-14.4-1.5-21.6c0-0.5,0-0.9,0-1.4   l0.1-1.5l0.2-2.9c0-0.5,0.1-1,0.1-1.4l0.1-1.2l0.3-2.3l0.1-0.6v0c-0.7-0.5-1.3-1-2-1.6c-3.1-2.6-6.1-5.3-9-8.1   c-5.8-5.7-11.1-11.8-15.9-18.4c-2.4-3.3-4.6-6.7-6.7-10.2c-2.1-3.5-4.1-7.1-5.9-10.7c-3.6-7.3-6.6-15-8.9-22.9   c-1.2-3.9-2.1-7.9-2.9-11.9c-0.8-4-1.5-8.1-1.9-12.1c-0.2-2.1-0.4-4.1-0.6-6.2l-0.2-3.3l0-0.8l0-0.7l0-1.4   c-0.2-4.1-0.1-8.2,0.2-12.3c0.5-8.2,1.6-16.4,3.5-24.4c1.8-8,4.4-15.9,7.6-23.5c3.2-7.6,7.1-14.9,11.6-21.9   c4.5-7,9.5-13.5,15.1-19.6c11.2-12.2,24.5-22.4,39.1-30.1c7.3-3.8,15-7,22.8-9.6c7.9-2.5,15.9-4.3,24.1-5.5c4.1-0.6,8.2-1,12.3-1.2   c1,0,2-0.1,3.1-0.1l3.2-0.1h2.7l1.7,0l1.5,0c4,0.1,7.9,0.4,11.9,0.9c5.4-9.3,11.7-17.9,18.9-25.7c10.2-11.1,22.1-20.5,35.2-27.9   c13-7.4,27.2-12.8,41.9-15.7c3.7-0.7,7.3-1.4,11-1.8c1.9-0.2,3.7-0.5,5.5-0.6c1.9-0.1,3.7-0.3,5.7-0.4l2.9-0.1c0.5,0,0.9,0,1.3,0   l1.3,0l2.5,0l0.3,0h0.4l0.2,0l0.7,0l1.4,0c3.7,0.1,7.4,0.4,11.1,0.7c14.8,1.5,29.3,5.5,42.9,11.5c13.6,6,26.1,14.1,37.1,24   c11,9.8,20.5,21.4,27.9,34.1c5.5,9.3,9.9,19.3,13.1,29.6c3.4-0.3,6.8-0.5,10.2-0.5c1.2,0,2.3,0,3.5,0.1c2.1,0.1,4.3,0.2,6.4,0.4   c1.1,0.1,2.1,0.2,3.2,0.4c1.1,0.1,2.3,0.3,3.3,0.5l1.4,0.3l0.7,0.1l0.9,0.2l3.1,0.7c2.1,0.4,4.2,1.1,6.2,1.6   c4.1,1.3,8.2,2.6,12.1,4.4c3.9,1.7,7.7,3.7,11.4,5.9c1.8,1.1,3.7,2.2,5.4,3.5l2.6,1.8l2.5,2l1.3,1l1.2,1l2.4,2.1l2.3,2.2   c0.8,0.7,1.6,1.5,2.3,2.3l2.2,2.3c0.7,0.8,1.4,1.6,2.1,2.4c1.4,1.6,2.7,3.3,4,5c2.5,3.4,5,6.9,7.1,10.6c2.2,3.7,4,7.5,5.7,11.4   c0.8,2,1.6,3.9,2.3,5.9c0.7,2,1.3,4,1.9,6.1c0.3,1,0.5,2,0.8,3.1c0.2,1,0.5,2.1,0.7,3.1c0.4,2.1,0.9,4.1,1.1,6.3l0.4,3.2l0.3,3.2   c0.2,2,0.2,4.1,0.3,6.1c0,0.1,0,0.2,0,0.3v0.4c0,2,0,3.9-0.1,5.9c-0.1,2.1-0.2,4.2-0.5,6.4c-0.1,1.1-0.2,2.3-0.4,3.3l-0.5,2.8   l-0.1,0.4c6.9,6.5,13.2,13.6,18.7,21.4c5.8,8.2,10.8,17.1,14.6,26.4c0,0.1,0.1,0.1,0.1,0.2c0.5,1.3,1,2.5,1.5,3.8   c4.1,10.8,6.8,22,8.1,33.4c0.3,2.8,0.6,5.7,0.7,8.6c0.1,1.4,0.1,2.9,0.2,4.4C740.3,499.2,740.3,500.4,740.3,501.8z"></path><path d="M835.7,575.2l0,0.8l0,0.7c0,0.5,0,0.9,0,1.4c-0.1,0.9-0.1,1.9-0.2,2.8c-0.1,1.9-0.3,3.8-0.6,5.6   c-1,7.5-3,14.8-5.8,21.8c-2.8,6.9-6.6,13.5-11,19.5c-4.5,6-9.7,11.5-15.5,16.2c-5.8,4.7-12.2,8.7-18.9,11.8   c-6.8,3.1-13.9,5.4-21.2,6.7c-3.6,0.7-7.3,1.1-11,1.3c-0.9,0.1-1.8,0.1-2.8,0.1l-1.4,0h-1.3c-1.9,0-3.7-0.1-5.5-0.2   c-3.7-0.2-7.3-0.7-10.9-1.3c-3.6-0.6-7.2-1.5-10.7-2.5c-7-2.1-13.8-4.9-20.2-8.4c-6.4-3.6-12.3-7.9-17.6-12.9   c-4.2-4-8-8.5-11.3-13.3c0.1-0.1,0.3-0.1,0.4-0.2c1.2-0.6,2.2-1.2,3.2-1.8c3.2,4.3,6.8,8.2,10.8,11.7c5.2,4.5,10.9,8.4,17,11.6   c6.1,3.2,12.6,5.6,19.2,7.3c3.3,0.8,6.7,1.5,10.1,2c3.4,0.5,6.8,0.7,10.2,0.8c1.7,0,3.4,0.1,5.1,0l1.3,0l1.3-0.1   c0.8,0,1.7-0.1,2.5-0.2c3.4-0.3,6.7-0.8,10-1.5c6.6-1.4,13-3.7,19-6.7c6-3,11.7-6.8,16.7-11.2c5.1-4.4,9.6-9.4,13.4-14.9   s6.9-11.4,9.3-17.7c2.3-6.2,3.9-12.7,4.5-19.3c0.2-1.7,0.3-3.3,0.4-5c0-0.8,0-1.7,0.1-2.5c0-0.4,0-0.8,0-1.2l0-1.2   c0-0.9,0-1.8-0.1-2.6c-0.1-0.8-0.1-1.6-0.2-2.4c-0.1-1.7-0.3-3.3-0.5-4.9c-0.9-6.5-2.7-12.9-5.2-19c-2.5-6.1-5.8-11.8-9.7-17.1   c-3.9-5.3-8.5-10-13.6-14.1l-3-2.5l0.8-4.2l0.3-1.6l0.1-0.7l0.1-0.9l0.3-1.9c0.1-0.6,0.1-1,0.1-1.6c0.1-1,0.1-2.1,0.2-3.2   c0-1.1,0-2.2,0-3.3c-0.1-1.1-0.1-2.2-0.3-3.3l-0.2-1.6l-0.3-1.6c-0.2-1.1-0.4-2.2-0.7-3.2c-0.1-0.5-0.3-1.1-0.4-1.6   c-0.1-0.5-0.3-1.1-0.5-1.6c-0.3-1.1-0.7-2.1-1.1-3.1c-0.4-1-0.8-2-1.3-3c-0.9-2-1.9-4-3.1-5.8c-1.1-1.9-2.5-3.7-3.8-5.4   c-0.7-0.8-1.4-1.7-2.1-2.5c-0.4-0.4-0.7-0.8-1.1-1.2l-1.2-1.1c-0.4-0.4-0.8-0.8-1.2-1.1l-1.2-1.1l-1.3-1l-0.6-0.5l-0.7-0.5l-1.3-1   l-1.4-0.9c-0.9-0.6-1.8-1.1-2.8-1.7c-1.9-1-3.8-2-5.9-2.8c-2-0.8-4.1-1.5-6.1-2.1c-1.1-0.2-2.1-0.5-3.2-0.7l-1.6-0.3l-0.2,0l-0.1,0   c0,0,0,0,0,0v0l0,0l0,0l-0.4-0.1l-0.9-0.1l-1.5-0.2c-0.5,0-1.1-0.1-1.6-0.1c-1.1-0.1-2.2-0.1-3.2-0.1c-2.6,0-5.3,0.1-7.8,0.5   c-0.1-0.3-0.2-0.5-0.3-0.7c-4-9.7-9.2-18.9-15.3-27.5c-5-7.2-10.9-14-17.4-20.3l0.1-0.6l0-0.1l0,0c0.1-0.9,0.2-1.8,0.3-2.7l0.1-0.7   c0.3-2,0.4-3.9,0.5-5.7l0.1-1c0-0.9,0.1-1.7,0.1-2.5c1.4,1.1,2.7,2.2,4,3.4c7.3,6.5,13.5,14.1,18.4,22.5c3.6,6.2,6.5,12.7,8.6,19.5   c3-0.3,6-0.4,9-0.3c1.4,0,2.8,0.1,4.3,0.3c0.7,0.1,1.4,0.2,2.1,0.2c0.7,0.1,1.5,0.2,2.2,0.3l0.9,0.2l0.5,0.1l0.6,0.1l2.1,0.4   c1.4,0.3,2.7,0.7,4.1,1.1c2.7,0.8,5.4,1.8,8,2.9c2.6,1.1,5.1,2.4,7.6,3.9c1.2,0.8,2.4,1.5,3.6,2.3l1.7,1.2l1.7,1.3l0.8,0.7l0.8,0.7   l1.6,1.4l1.5,1.4c0.5,0.5,1,1,1.5,1.5l1.5,1.5c0.5,0.5,0.9,1.1,1.4,1.6c0.9,1,1.8,2.2,2.7,3.3c1.7,2.3,3.3,4.6,4.7,7   c1.4,2.4,2.7,5,3.8,7.5c0.5,1.3,1.1,2.6,1.5,3.9c0.5,1.3,0.9,2.7,1.3,4c0.2,0.7,0.4,1.4,0.5,2c0.2,0.7,0.3,1.4,0.5,2   c0.3,1.4,0.6,2.7,0.7,4.1l0.3,2.1l0.2,2.1c0.2,1.4,0.2,2.8,0.2,4.2c0,1.4,0,2.8-0.1,4.2c-0.1,1.4-0.1,2.8-0.3,4.2   c-0.1,0.7-0.2,1.5-0.3,2.2l-0.3,1.8l0,0.3c4.6,4.3,8.7,9,12.3,14.1c4.4,6.2,8,13,10.7,20.1c2.7,7.1,4.5,14.5,5.4,22.1   c0.2,1.9,0.4,3.8,0.5,5.7c0.1,0.9,0.1,1.9,0.1,2.9C835.7,573.5,835.7,574.3,835.7,575.2z"></path><path d="M599.4,641c-0.1,0.1-0.2,0.2-0.3,0.2c-6.7,5.6-14.5,10.1-23,13c-4.3,1.4-8.7,2.4-13.3,2.9   c-2.3,0.2-4.6,0.4-6.9,0.3c-1.2,0-2.3-0.1-3.5-0.2l-1.8-0.2l-1.6-0.2l-3.5-0.6l-3.4-0.7l-3.3-0.9c-1.1-0.3-2.2-0.7-3.3-1.1   c-4.4-1.5-8.5-3.6-12.5-6c-4-2.5-7.7-5.3-11-8.6c-3.4-3.2-6.4-6.8-9.1-10.7c-2.7-3.9-4.9-8.1-6.7-12.5c-1.8-4.4-3.1-9-3.9-13.7   c-0.8-4.2-1.1-8.5-1-12.8c3.4,4.2,7.2,8.3,11.2,12.1c1.7,1.6,3.4,3.2,5.2,4.7c1.7,1.5,3.5,2.9,5.3,4.4c1.1,3.1,2.4,6.1,4.1,9   c3.6,6.1,8.5,11.6,14.3,15.9c2.9,2.1,6,4,9.4,5.5c0.8,0.4,1.7,0.7,2.5,1.1l2.6,0.9l2.6,0.8l2.6,0.6l1.5,0.3l1.3,0.2   c0.9,0.1,1.8,0.3,2.7,0.3c1.8,0.2,3.6,0.3,5.5,0.2c3.7-0.1,7.4-0.6,11.1-1.4c4-0.9,8-2.3,11.8-4.1c2.4,0.3,4.9,0.6,7.2,0.8l0.1,0   c1.1,0.1,2.2,0.2,3.3,0.3C596.7,640.9,598,640.9,599.4,641z"></path><path d="M635.5,733.8c0,3.7,0,7.4-0.2,10.9c0,1.8-0.2,3.6-0.3,5.3c0,0.9-0.1,1.7-0.2,2.6l0,0.3l0,0.2   c0,0,0,0.1,0,0.6l0,0.1l-0.1,0.6c-0.1,0.4-0.1,0.9-0.2,1.3l0,0.3l-0.1,0.5l-0.2,1.1c-0.1,0.7-0.3,1.4-0.4,2.1   c-0.1,0.4-0.2,0.6-0.3,0.9l-0.3,0.9c-0.2,0.6-0.4,1.2-0.6,1.7c-0.5,1.1-0.9,2.2-1.4,3.3c-0.6,1-1.1,2.1-1.7,3   c-2.5,3.9-5.7,7-9.1,9.3c-3.4,2.3-7.2,3.8-10.8,4.6c-3.6,0.7-7.1,0.7-10.2,0.2c-3.1-0.5-5.8-1.5-8.1-2.7c-2.3-1.2-4.2-2.5-5.7-3.8   c-3-2.7-4.8-5.1-5.9-6.8c-0.6-0.8-0.9-1.5-1.2-2c-0.2-0.5-0.4-0.7-0.4-0.7l1.6-1.6c0,0,0.2,0.1,0.7,0.3c0.4,0.2,1.1,0.5,1.9,0.9   c1.7,0.8,4.2,1.8,7.2,2.6c3,0.8,6.6,1,10,0.2l0.5-0.1l0.2,0c-0.3,0-0.1,0-0.1,0l0.2-0.1c0.2-0.1,0.4-0.1,0.6-0.2   c0.4-0.1,0.8-0.2,1.3-0.4c0.4-0.2,0.8-0.3,1.2-0.6c0.4-0.2,0.8-0.4,1.2-0.6c1.5-0.9,2.9-2.2,4.1-3.6c1.1-1.4,2.1-3.1,2.6-4.8   c0.2-0.4,0.2-0.9,0.4-1.3c0.1-0.5,0.2-0.9,0.3-1.4l0-0.7l0-0.3c0-0.1,0-0.3,0-0.3c0-0.1,0-0.3,0-0.4v-0.2c0,0,0,0,0-0.1l0-0.3   c0-0.4,0-0.8,0-1.3l0-0.7c0,0.2,0,0.3,0,0.4l0-0.1l0-0.3c0-0.9-0.1-1.7-0.2-2.6c-0.1-1.8-0.2-3.5-0.3-5.3   c-0.2-3.6-0.2-7.2-0.2-10.9c0-3.7,0.2-7.5,0.4-11.3c0.2-3.8,0.5-7.7,0.8-11.6c0.6-7.8,1.2-15.7,1.6-23.7c0.4-7.9,0.7-15.8,1.1-23.7   c0.4-7.8,0.8-15.4,1.3-22.8c0.2,0,0.5,0,0.7-0.1c4.2-0.4,8.4-0.9,12.8-1.7c0,0,0,0,0,0c0,0.6,0.1,1.1,0.1,1.7   c0.4,7.4,0.9,15.1,1.3,22.9c0.4,7.8,0.8,15.7,1.1,23.7c0.4,7.9,1,15.9,1.6,23.7c0.3,3.9,0.6,7.8,0.8,11.6   C635.4,726.3,635.5,730,635.5,733.8z"></path><path d="M703.3,767.7c0,0-0.1,0.2-0.4,0.7c-0.3,0.4-0.6,1.1-1.2,2c-1.1,1.7-2.8,4.2-5.9,6.8   c-1.5,1.3-3.4,2.7-5.7,3.8c-2.3,1.2-5,2.2-8.2,2.7c-3.1,0.5-6.6,0.5-10.2-0.2c-3.6-0.8-7.3-2.2-10.8-4.6c-3.5-2.3-6.6-5.5-9.1-9.3   c-0.6-1-1.2-2-1.7-3c-0.5-1.1-1-2.2-1.4-3.3c-0.2-0.6-0.4-1.2-0.6-1.7l-0.3-0.9c-0.1-0.3-0.2-0.6-0.3-0.9c-0.1-0.7-0.3-1.4-0.4-2.1   l-0.2-1.1l-0.1-0.5l0-0.3c0-0.4-0.1-0.8-0.2-1.3l-0.1-0.6l0-0.1c0-0.5,0-0.6,0-0.6l0-0.2l0-0.3c-0.1-0.9-0.1-1.7-0.2-2.6   c-0.1-1.8-0.2-3.5-0.3-5.3c-0.2-3.6-0.2-7.2-0.2-10.9c0-3.7,0.2-7.5,0.4-11.3c0.2-3.8,0.5-7.7,0.8-11.6c0.6-7.8,1.2-15.7,1.6-23.7   c0.4-7.9,0.7-15.8,1.1-23.7c0.4-7.8,0.8-15.5,1.3-22.9c0.2-2.5,0.3-5,0.5-7.5c0.7-0.2,1.4-0.5,2.1-0.8c3.2-1.2,6.4-2.5,9.6-4   c0.3-0.1,0.5-0.2,0.8-0.3c0.3,4.1,0.5,8.3,0.8,12.6c0.4,7.4,0.9,15.1,1.3,22.9c0.4,7.8,0.8,15.7,1.1,23.7c0.4,7.9,1,15.9,1.6,23.7   c0.3,3.9,0.6,7.8,0.8,11.6c0.2,3.8,0.3,7.6,0.4,11.3c0,3.7,0,7.4-0.2,10.9c0,1.8-0.2,3.6-0.3,5.3c0,0.9-0.1,1.7-0.2,2.6l0,0.3   l0,0.2v0.1c0,0,0-0.2,0-0.5l0,0.7c0,0.4,0,0.9,0,1.3l0,0.3c0,0.1,0,0.1,0,0.1c0,0.1,0,0.1,0,0.2c0,0.1,0,0.3,0,0.4c0,0,0,0.2,0,0.3   l0,0.3l0,0.7c0.1,0.4,0.2,0.9,0.3,1.4c0.1,0.4,0.2,0.9,0.4,1.3c0.6,1.8,1.5,3.4,2.6,4.8c1.2,1.4,2.5,2.7,4.1,3.6   c0.4,0.2,0.8,0.4,1.2,0.6c0.4,0.2,0.8,0.4,1.2,0.6c0.4,0.2,0.8,0.3,1.3,0.4c0.2,0.1,0.4,0.2,0.6,0.2l0.2,0.1c0,0,0.2,0-0.1,0l0.1,0   l0.1,0l0.5,0.1c3.4,0.8,7,0.5,10-0.2c3-0.8,5.5-1.8,7.2-2.6c0.9-0.4,1.5-0.7,1.9-0.9c0.4-0.2,0.7-0.3,0.7-0.3L703.3,767.7z"></path><g><path d="M492.1,580.5L492.1,580.5l0,0.4l-0.1,1c-0.9-1.2-1.8-2.5-2.7-3.7c0.5,0.4,1,0.9,1.5,1.3    C491.2,579.8,491.7,580.2,492.1,580.5z"></path><path d="M490.8,579.5c-0.5-0.4-1-0.8-1.5-1.3c0.9,1.3,1.8,2.5,2.7,3.7l0.1-1l0-0.4v0    C491.7,580.2,491.2,579.8,490.8,579.5z"></path></g></g></g><g id="SvgjsG2869" featureKey="nameRightFeature-0" transform="matrix(2.571427695605518,0,0,2.571427695605518,165.94285903901405,-9.428563721328558)" fill="#5eb251"><path d="M10.46 19.28 l-2.3 0 l-2.76 -5.14 l-1.86 0.02 l0 5.12 l-2.02 0 l0 -13.28 l-0.72 0 l0 14 l3.48 0 l0 -5.14 l0.7 0 l2.74 5.14 l3.94 0 l-2.76 -5.16 l-0.66 0.26 z M5.7 6.720000000000001 c2.9 0 4.54 1.3 4.54 3.68 c0 2.16 -1.3 3.48 -3.56 3.72 l-0.54 0.06 l2.5 4.62 l0.82 0 l-2.18 -4.06 c2.4 -0.42 3.68 -1.88 3.68 -4.34 c0 -0.82 -0.18 -1.56 -0.52 -2.22 c-0.8 -1.42 -2.44 -2.18 -4.74 -2.18 l-3.54 0 l0 12.78 l0.72 0 l0 -12.06 l2.82 0 z M5.54 13.52 c2.74 0 4.04 -0.94 4.04 -3.02 c0 -1.98 -1.36 -3.1 -3.54 -3.1 l-2.52 0 l0 2.1 l2.3 0 c1.06 0 1.6 0.3 1.6 0.9 c0 0.7 -0.66 1.04 -2 1.04 l-1.16 0 l0 -1.24 l-0.74 0 l0 1.96 l1.9 0 c1.78 0 2.72 -0.62 2.72 -1.76 c0 -0.36 -0.08 -0.64 -0.26 -0.86 c-0.34 -0.5 -1.02 -0.74 -2.06 -0.74 l-1.56 0 l0 -0.68 l1.78 0 c1.78 0 2.82 0.86 2.82 2.38 c0 1.58 -1.06 2.32 -3.32 2.32 l-2 0 l0 0.7 l2 0 z M12.46 6.039999999999999 l0.72 0 l0 13.24 l7.66 0 l0 -2 l-5.64 0 l0 -1.92 l0.72 0 l0 1.2 l5.64 0 l0 3.44 l-9.1 0 l0 -13.96 z M13.82 6.039999999999999 l7.64 0 l0 3.42 l-4.8 0 l0 -0.72 l4.08 0 l0 -1.98 l-6.2 0 l0 5.78 l4.66 0 l0 0.72 l-5.38 0 l0 -7.22 z M13.82 13.9 l6.08 0 l0 -2 l-4.7 0 l0 -4.54 l4.84 0 l0 0.72 l-4.12 0 l0 3.1 l4.7 0 l0 3.44 l-6.08 0 l0 3.32 l5.6 0 l0 0.72 l-6.32 0 l0 -4.76 z M23.259999999999998 6.039999999999999 l0.72 0 l0 13.24 l7.66 0 l0 -2 l-5.64 0 l0 -1.92 l0.72 0 l0 1.2 l5.64 0 l0 3.44 l-9.1 0 l0 -13.96 z M24.619999999999997 6.039999999999999 l7.64 0 l0 3.42 l-4.8 0 l0 -0.72 l4.08 0 l0 -1.98 l-6.2 0 l0 5.78 l4.66 0 l0 0.72 l-5.38 0 l0 -7.22 z M24.619999999999997 13.9 l6.08 0 l0 -2 l-4.7 0 l0 -4.54 l4.84 0 l0 0.72 l-4.12 0 l0 3.1 l4.7 0 l0 3.44 l-6.08 0 l0 3.32 l5.6 0 l0 0.72 l-6.32 0 l0 -4.76 z"></path></g>
			</g>
		</svg>
	